<svg width="237" height="55" viewBox="0 0 237 55" fill="none" xmlns="http://www.w3.org/2000/svg">
<path d="M27.068 13.46C27.292 13.6467 27.4507 14.0107 27.544 14.552C27.656 15.0933 27.7027 15.6813 27.684 16.316C27.6653 16.932 27.572 17.492 27.404 17.996C27.236 18.4813 26.9933 18.7707 26.676 18.864C26.5453 18.9013 26.2747 18.9573 25.864 19.032C25.472 19.088 25.108 19.1627 24.772 19.256C24.4547 19.3493 24.0347 19.508 23.512 19.732C22.9893 19.956 22.5413 20.2827 22.168 20.712C21.8693 21.0667 21.6267 21.44 21.44 21.832C21.2533 22.2053 21.1507 22.6907 21.132 23.288C21.1133 23.5307 21.104 23.988 21.104 24.66C21.104 25.3133 21.104 26.0787 21.104 26.956C21.104 27.8147 21.104 28.664 21.104 29.504C21.1227 30.344 21.132 31.0627 21.132 31.66C21.132 32.2573 21.132 32.612 21.132 32.724C21.1133 33.284 21.1693 33.76 21.3 34.152C21.4307 34.544 21.5707 34.7773 21.72 34.852C21.2533 35.2067 20.7867 35.5053 20.32 35.748C19.872 35.9907 19.228 36.168 18.388 36.28C18.0707 36.3173 17.716 36.224 17.324 36C16.932 35.7947 16.5867 35.468 16.288 35.02C16.008 34.5533 15.8587 33.984 15.84 33.312C15.84 32.64 15.8307 31.7813 15.812 30.736C15.812 29.672 15.812 28.524 15.812 27.292C15.8307 26.0413 15.8307 24.7907 15.812 23.54C15.7933 22.9987 15.7093 22.4853 15.56 22C15.4293 21.5147 15.2053 21.0947 14.888 20.74C14.5707 20.3667 14.1507 20.0587 13.628 19.816C13.1053 19.5733 12.452 19.4147 11.668 19.34C11.4627 19.3213 11.1827 19.2653 10.828 19.172C10.4733 19.0787 10.2307 18.9853 10.1 18.892C9.89467 18.7427 9.72667 18.4627 9.596 18.052C9.46533 17.6227 9.36267 17.156 9.288 16.652C9.21333 16.1293 9.15733 15.616 9.12 15.112C9.10133 14.608 9.10133 14.1973 9.12 13.88C9.19467 13.8987 9.4 13.9267 9.736 13.964C10.0907 14.0013 10.5107 14.0387 10.996 14.076C11.4813 14.0947 11.9573 14.1133 12.424 14.132C12.76 14.1507 13.208 14.1693 13.768 14.188C14.3467 14.2067 14.9627 14.2253 15.616 14.244C16.2693 14.2627 16.8853 14.2813 17.464 14.3C18.0427 14.3 18.5187 14.3 18.892 14.3C19.396 14.2813 19.984 14.2627 20.656 14.244C21.328 14.2253 21.972 14.2067 22.588 14.188C23.2227 14.1507 23.7267 14.1133 24.1 14.076C24.4733 14.0387 24.8653 13.992 25.276 13.936C25.7053 13.8613 26.0787 13.7867 26.396 13.712C26.732 13.6187 26.956 13.5347 27.068 13.46ZM42.0213 30.932C42.04 31.3427 42.068 31.8467 42.1053 32.444C42.1613 33.0413 42.2826 33.62 42.4693 34.18C42.656 34.74 42.9546 35.188 43.3653 35.524C42.8986 35.8413 42.4226 36.0653 41.9373 36.196C41.452 36.3453 40.976 36.3827 40.5093 36.308C40.3786 36.2707 40.2386 36.224 40.0893 36.168C39.94 36.1307 39.7346 36.0747 39.4733 36C39.044 35.8693 38.54 35.8413 37.9613 35.916C37.3826 35.9907 36.776 36.084 36.1413 36.196C35.5253 36.3267 34.9186 36.392 34.3213 36.392C33.3506 36.392 32.38 36.224 31.4093 35.888C30.4386 35.5333 29.5613 34.992 28.7773 34.264C27.9933 33.536 27.396 32.612 26.9853 31.492C26.5746 30.372 26.4533 29.028 26.6213 27.46C26.7333 26.3773 27.0413 25.388 27.5453 24.492C28.0493 23.5773 28.6653 22.7933 29.3933 22.14C30.14 21.468 30.924 20.9547 31.7453 20.6C32.5853 20.2267 33.3973 20.0493 34.1813 20.068C34.7786 20.0867 35.236 20.1053 35.5533 20.124C35.8893 20.1427 36.3186 20.1893 36.8413 20.264C37.1586 20.3013 37.56 20.2547 38.0453 20.124C38.5306 19.9933 39.016 19.8533 39.5013 19.704C40.0053 19.536 40.4346 19.452 40.7893 19.452C41.3306 19.4333 41.7133 19.452 41.9373 19.508C42.1613 19.5453 42.348 19.5827 42.4973 19.62C42.3853 19.956 42.292 20.46 42.2173 21.132C42.1426 21.804 42.0866 22.5693 42.0493 23.428C42.0306 24.268 42.012 25.1453 41.9933 26.06C41.9746 26.9747 41.9653 27.852 41.9653 28.692C41.984 29.532 42.0026 30.2787 42.0213 30.932ZM31.4933 28.356C31.5306 29.2893 31.6986 30.0173 31.9973 30.54C32.3146 31.044 32.688 31.3987 33.1173 31.604C33.5653 31.8093 33.9946 31.912 34.4053 31.912C35.2266 31.9307 35.8333 31.6133 36.2253 30.96C36.6173 30.3067 36.804 29.4013 36.7853 28.244C36.7853 27.9267 36.748 27.5533 36.6733 27.124C36.6173 26.6947 36.5053 26.2747 36.3373 25.864C36.188 25.4533 35.9733 25.108 35.6933 24.828C35.432 24.548 35.0866 24.408 34.6573 24.408C33.7986 24.408 33.0426 24.7253 32.3893 25.36C31.7546 25.9947 31.456 26.9933 31.4933 28.356ZM52.9046 19.732C54.2859 19.732 55.4619 19.928 56.4326 20.32C57.4219 20.712 58.1779 21.1973 58.7006 21.776C59.2232 22.3547 59.4752 22.924 59.4566 23.484C59.4566 23.7827 59.3259 24.1187 59.0646 24.492C58.8032 24.8653 58.4579 25.1827 58.0286 25.444C57.6179 25.6867 57.1606 25.78 56.6566 25.724C56.7872 25.388 56.7032 25.0707 56.4046 24.772C56.1059 24.4733 55.6766 24.2307 55.1166 24.044C54.5566 23.8387 53.9499 23.7267 53.2966 23.708C52.5499 23.6707 52.0459 23.7547 51.7846 23.96C51.5232 24.1467 51.3739 24.352 51.3366 24.576C51.2806 24.8187 51.3926 25.0333 51.6726 25.22C51.9526 25.388 52.3166 25.5467 52.7646 25.696C53.2312 25.8267 53.7166 25.948 54.2206 26.06C54.7432 26.1533 55.2192 26.2373 55.6486 26.312C56.0966 26.3867 56.4419 26.4613 56.6846 26.536C57.8046 26.872 58.6259 27.3107 59.1486 27.852C59.6712 28.3747 60.0072 28.9347 60.1566 29.532C60.3246 30.1293 60.3899 30.7173 60.3526 31.296C60.3152 32.2293 60.0726 33.0133 59.6246 33.648C59.1952 34.264 58.6539 34.7587 58.0006 35.132C57.3659 35.5053 56.6939 35.7853 55.9846 35.972C55.2939 36.14 54.6406 36.252 54.0246 36.308C53.4272 36.364 52.9699 36.392 52.6526 36.392C51.6819 36.3733 50.7672 36.2707 49.9086 36.084C49.0686 35.916 48.3406 35.692 47.7246 35.412C47.1272 35.132 46.6979 34.8333 46.4366 34.516C46.2499 34.292 46.0726 33.9747 45.9046 33.564C45.7366 33.1533 45.6339 32.7147 45.5966 32.248C45.5779 31.7627 45.6806 31.3053 45.9046 30.876C46.1286 30.428 46.5392 30.064 47.1366 29.784C47.2486 30.1573 47.5472 30.4933 48.0326 30.792C48.5366 31.0907 49.1339 31.3333 49.8246 31.52C50.5339 31.7067 51.2339 31.8373 51.9246 31.912C52.5966 31.968 53.2312 31.9587 53.8286 31.884C54.4259 31.8093 54.7526 31.5947 54.8086 31.24C54.8459 31.0533 54.7526 30.8667 54.5286 30.68C54.3046 30.4933 53.8939 30.3347 53.2966 30.204C52.6619 30.0547 52.1019 29.9427 51.6166 29.868C51.1499 29.7747 50.6832 29.672 50.2166 29.56C49.3392 29.336 48.5739 28.9813 47.9206 28.496C47.2672 28.0107 46.7726 27.432 46.4366 26.76C46.1192 26.0693 46.0072 25.3413 46.1006 24.576C46.2499 23.4747 46.6512 22.5693 47.3046 21.86C47.9766 21.1507 48.8072 20.6187 49.7966 20.264C50.7859 19.9093 51.8219 19.732 52.9046 19.732ZM74.6444 30.204C74.7377 30.3533 74.9524 30.624 75.2884 31.016C75.6244 31.408 75.9977 31.8373 76.4084 32.304C76.8377 32.752 77.239 33.1627 77.6124 33.536C78.0044 33.8907 78.2937 34.124 78.4804 34.236C78.1817 34.908 77.6777 35.4213 76.9684 35.776C76.2777 36.1307 75.5124 36.2707 74.6724 36.196C73.8324 36.14 73.039 35.832 72.2924 35.272C72.1244 35.1413 71.8817 34.908 71.5644 34.572C71.2657 34.2173 70.9857 33.8627 70.7244 33.508C70.463 33.1533 70.1644 32.7987 69.8284 32.444C69.511 32.0707 69.1844 31.9213 68.8484 31.996C68.6804 32.0333 68.5217 32.164 68.3724 32.388C68.2417 32.612 68.1764 32.9107 68.1764 33.284C68.1764 33.6013 68.2417 33.9093 68.3724 34.208C68.5217 34.5067 68.5964 34.656 68.5964 34.656C68.5964 34.656 68.4844 34.7493 68.2604 34.936C68.055 35.1227 67.775 35.328 67.4204 35.552C67.0657 35.776 66.683 35.9347 66.2724 36.028C65.8617 36.1213 65.4137 36.056 64.9284 35.832C64.4617 35.5893 64.0604 35.244 63.7244 34.796C63.3884 34.3293 63.211 33.816 63.1924 33.256C63.1924 33.1067 63.183 32.7147 63.1644 32.08C63.1644 31.4267 63.155 30.624 63.1364 29.672C63.1364 28.7013 63.1364 27.6467 63.1364 26.508C63.1364 25.3507 63.127 24.1933 63.1084 23.036C63.1084 21.86 63.099 20.7493 63.0804 19.704C63.0804 18.64 63.0804 17.7347 63.0804 16.988C63.0804 16.5027 63.043 16.0267 62.9684 15.56C62.8937 15.0933 62.8097 14.7107 62.7164 14.412C62.6417 14.0947 62.6044 13.936 62.6044 13.936C62.7724 13.8987 63.0617 13.8893 63.4724 13.908C63.9017 13.908 64.3777 13.9547 64.9004 14.048C65.4417 14.1227 65.9644 14.2533 66.4684 14.44C66.991 14.608 67.4297 14.86 67.7844 15.196C68.1577 15.532 68.3724 15.952 68.4284 16.456C68.447 16.6053 68.4564 16.932 68.4564 17.436C68.475 17.9213 68.4844 18.4533 68.4844 19.032C68.4844 19.592 68.475 20.0587 68.4564 20.432C68.4377 20.992 68.5124 21.4587 68.6804 21.832C68.8484 22.1867 69.0817 22.448 69.3804 22.616C69.679 22.8027 70.0337 22.868 70.4444 22.812C70.8737 22.756 71.331 22.5973 71.8164 22.336C72.059 22.2053 72.4044 22 72.8524 21.72C73.3004 21.44 73.7577 21.1507 74.2244 20.852C74.7097 20.5533 75.111 20.3013 75.4284 20.096C75.7644 19.8907 75.9324 19.788 75.9324 19.788C76.1004 19.9187 76.3057 20.18 76.5484 20.572C76.791 20.964 77.0057 21.412 77.1924 21.916C77.379 22.42 77.4724 22.9427 77.4724 23.484C77.491 24.0067 77.3417 24.4733 77.0244 24.884C76.9684 24.9587 76.8564 25.0613 76.6884 25.192C76.539 25.3227 76.315 25.4907 76.0164 25.696C75.4564 26.088 75.055 26.48 74.8124 26.872C74.5884 27.2453 74.4204 27.656 74.3084 28.104C74.2337 28.4587 74.2244 28.8227 74.2804 29.196C74.3364 29.5693 74.4577 29.9053 74.6444 30.204ZM115.744 33.06C115.763 33.4333 115.81 33.7973 115.884 34.152C115.978 34.5067 116.09 34.768 116.22 34.936C116.052 35.104 115.791 35.3 115.436 35.524C115.1 35.748 114.708 35.9253 114.26 36.056C113.831 36.2053 113.374 36.2707 112.888 36.252C112.16 36.2147 111.572 35.9067 111.124 35.328C110.695 34.7493 110.471 34.0307 110.452 33.172C110.452 33.004 110.452 32.696 110.452 32.248C110.452 31.7813 110.452 31.2867 110.452 30.764C110.452 30.2413 110.452 29.812 110.452 29.476C110.452 29.1587 110.368 28.8507 110.2 28.552C110.051 28.2533 109.874 28.076 109.668 28.02C109.388 27.9267 109.155 28.0947 108.968 28.524C108.931 28.6173 108.81 28.8507 108.604 29.224C108.399 29.5787 108.166 29.9987 107.904 30.484C107.662 30.9693 107.428 31.4547 107.204 31.94C106.999 32.4253 106.859 32.8453 106.784 33.2C106.71 33.536 106.756 33.7413 106.924 33.816C106.85 34.0027 106.71 34.2733 106.504 34.628C106.318 34.9827 106 35.2907 105.552 35.552C105.123 35.7947 104.507 35.888 103.704 35.832C103.275 35.7947 102.724 35.5333 102.052 35.048C101.38 34.5627 100.736 33.676 100.12 32.388C99.5416 31.156 99.0656 30.3253 98.6922 29.896C98.3376 29.448 98.0762 29.2427 97.9082 29.28C97.7589 29.2987 97.6376 29.4013 97.5442 29.588C97.4696 29.7747 97.3949 30.036 97.3202 30.372C97.2829 30.54 97.2642 30.82 97.2642 31.212C97.2642 31.604 97.2829 32.0427 97.3202 32.528C97.3576 33.0133 97.4229 33.4707 97.5162 33.9C97.6282 34.3293 97.7682 34.656 97.9362 34.88C97.7869 34.9733 97.5162 35.132 97.1242 35.356C96.7509 35.58 96.3216 35.7853 95.8362 35.972C95.3696 36.14 94.9122 36.224 94.4642 36.224C93.7922 36.2053 93.2322 36.028 92.7842 35.692C92.3362 35.3373 92.0656 34.6467 91.9722 33.62C91.9536 33.452 91.9442 32.976 91.9442 32.192C91.9442 31.408 91.9442 30.4187 91.9442 29.224C91.9442 28.0293 91.9442 26.7507 91.9442 25.388C91.9442 24.0067 91.9442 22.644 91.9442 21.3C91.9442 19.956 91.9442 18.724 91.9442 17.604C91.9629 16.484 91.9722 15.588 91.9722 14.916C91.9722 14.244 91.9722 13.908 91.9722 13.908C92.1776 13.8707 92.5229 13.8613 93.0082 13.88C93.4936 13.8987 94.0256 13.9733 94.6042 14.104C95.1829 14.2347 95.7149 14.4493 96.2002 14.748C96.6856 15.028 97.0216 15.4293 97.2082 15.952C97.2082 15.952 97.2922 16.1293 97.4602 16.484C97.6469 16.82 97.8896 17.268 98.1882 17.828C98.4869 18.3693 98.8042 18.9573 99.1402 19.592C99.4949 20.2267 99.8309 20.852 100.148 21.468C100.484 22.084 100.774 22.6253 101.016 23.092C101.278 23.5587 101.455 23.8853 101.548 24.072C101.866 24.6133 102.164 24.9867 102.444 25.192C102.743 25.3973 103.06 25.5093 103.396 25.528C104.087 25.528 104.75 24.996 105.384 23.932C105.478 23.764 105.664 23.4093 105.944 22.868C106.224 22.308 106.551 21.6453 106.924 20.88C107.298 20.1147 107.68 19.3307 108.072 18.528C108.483 17.7253 108.856 16.9787 109.192 16.288C109.528 15.5787 109.799 15.0093 110.004 14.58C110.228 14.132 110.34 13.908 110.34 13.908C110.471 13.8893 110.658 13.88 110.9 13.88C111.162 13.8613 111.442 13.8707 111.74 13.908C112.263 13.9453 112.814 14.048 113.392 14.216C113.99 14.384 114.503 14.6453 114.932 15C115.38 15.3547 115.632 15.8307 115.688 16.428C115.726 16.7453 115.754 17.268 115.772 17.996C115.791 18.7053 115.8 19.5547 115.8 20.544C115.8 21.5147 115.8 22.5507 115.8 23.652C115.8 24.7533 115.791 25.836 115.772 26.9C115.772 27.964 115.763 28.944 115.744 29.84C115.744 30.736 115.744 31.4733 115.744 32.052C115.744 32.612 115.744 32.948 115.744 33.06ZM133.924 30.932C133.942 31.3427 133.97 31.8467 134.008 32.444C134.064 33.0413 134.185 33.62 134.372 34.18C134.558 34.74 134.857 35.188 135.268 35.524C134.801 35.8413 134.325 36.0653 133.84 36.196C133.354 36.3453 132.878 36.3827 132.412 36.308C132.281 36.2707 132.141 36.224 131.992 36.168C131.842 36.1307 131.637 36.0747 131.376 36C130.946 35.8693 130.442 35.8413 129.864 35.916C129.285 35.9907 128.678 36.084 128.044 36.196C127.428 36.3267 126.821 36.392 126.224 36.392C125.253 36.392 124.282 36.224 123.312 35.888C122.341 35.5333 121.464 34.992 120.68 34.264C119.896 33.536 119.298 32.612 118.888 31.492C118.477 30.372 118.356 29.028 118.524 27.46C118.636 26.3773 118.944 25.388 119.448 24.492C119.952 23.5773 120.568 22.7933 121.296 22.14C122.042 21.468 122.826 20.9547 123.648 20.6C124.488 20.2267 125.3 20.0493 126.084 20.068C126.681 20.0867 127.138 20.1053 127.456 20.124C127.792 20.1427 128.221 20.1893 128.744 20.264C129.061 20.3013 129.462 20.2547 129.948 20.124C130.433 19.9933 130.918 19.8533 131.404 19.704C131.908 19.536 132.337 19.452 132.692 19.452C133.233 19.4333 133.616 19.452 133.84 19.508C134.064 19.5453 134.25 19.5827 134.4 19.62C134.288 19.956 134.194 20.46 134.12 21.132C134.045 21.804 133.989 22.5693 133.952 23.428C133.933 24.268 133.914 25.1453 133.896 26.06C133.877 26.9747 133.868 27.852 133.868 28.692C133.886 29.532 133.905 30.2787 133.924 30.932ZM123.396 28.356C123.433 29.2893 123.601 30.0173 123.9 30.54C124.217 31.044 124.59 31.3987 125.02 31.604C125.468 31.8093 125.897 31.912 126.308 31.912C127.129 31.9307 127.736 31.6133 128.128 30.96C128.52 30.3067 128.706 29.4013 128.688 28.244C128.688 27.9267 128.65 27.5533 128.576 27.124C128.52 26.6947 128.408 26.2747 128.24 25.864C128.09 25.4533 127.876 25.108 127.596 24.828C127.334 24.548 126.989 24.408 126.56 24.408C125.701 24.408 124.945 24.7253 124.292 25.36C123.657 25.9947 123.358 26.9933 123.396 28.356ZM152.759 32.444C152.778 33.2653 152.899 33.844 153.123 34.18C153.366 34.4973 153.487 34.656 153.487 34.656C153.487 34.656 153.319 34.7773 152.983 35.02C152.666 35.244 152.236 35.4773 151.695 35.72C151.154 35.9627 150.547 36.084 149.875 36.084C148.886 36.084 148.242 35.8133 147.943 35.272C147.644 34.7307 147.486 34.0307 147.467 33.172C147.467 33.0227 147.476 32.696 147.495 32.192C147.514 31.688 147.523 31.1187 147.523 30.484C147.542 29.8307 147.542 29.2333 147.523 28.692C147.504 28.132 147.467 27.74 147.411 27.516C147.206 26.7693 146.804 26.4427 146.207 26.536C145.74 26.592 145.302 26.8627 144.891 27.348C144.48 27.8147 144.144 28.3747 143.883 29.028C143.622 29.6813 143.491 30.2973 143.491 30.876C143.491 31.1747 143.472 31.4733 143.435 31.772C143.416 32.052 143.398 32.3133 143.379 32.556C143.36 32.724 143.379 32.9293 143.435 33.172C143.51 33.4147 143.64 33.6107 143.827 33.76C143.696 33.984 143.435 34.2733 143.043 34.628C142.67 34.9827 142.259 35.3093 141.811 35.608C141.382 35.888 141.008 36.0467 140.691 36.084C140.392 36.1027 140.038 36.0093 139.627 35.804C139.235 35.5987 138.89 35.2907 138.591 34.88C138.311 34.4693 138.162 33.9747 138.143 33.396C138.143 33.2467 138.143 32.9013 138.143 32.36C138.162 31.8187 138.171 31.1653 138.171 30.4C138.19 29.6347 138.199 28.8227 138.199 27.964C138.218 27.1053 138.227 26.2747 138.227 25.472C138.227 24.6693 138.227 23.9787 138.227 23.4C138.227 22.896 138.162 22.4107 138.031 21.944C137.919 21.4587 137.798 21.0667 137.667 20.768C137.555 20.4507 137.499 20.292 137.499 20.292C137.667 20.2547 137.956 20.2267 138.367 20.208C138.796 20.1893 139.272 20.1987 139.795 20.236C140.318 20.2733 140.831 20.3573 141.335 20.488C141.858 20.6187 142.296 20.824 142.651 21.104C143.024 21.384 143.398 21.5613 143.771 21.636C144.163 21.692 144.471 21.6547 144.695 21.524C145.348 21.0947 146.011 20.7213 146.683 20.404C147.355 20.0867 148.008 19.8907 148.643 19.816C148.96 19.7787 149.334 19.7973 149.763 19.872C150.192 19.928 150.612 20.068 151.023 20.292C151.452 20.516 151.816 20.8333 152.115 21.244C152.432 21.6547 152.628 22.1773 152.703 22.812C152.834 23.8947 152.871 25.22 152.815 26.788C152.759 28.3373 152.74 30.2227 152.759 32.444ZM171.193 30.932C171.212 31.3427 171.24 31.8467 171.277 32.444C171.333 33.0413 171.455 33.62 171.641 34.18C171.828 34.74 172.127 35.188 172.537 35.524C172.071 35.8413 171.595 36.0653 171.109 36.196C170.624 36.3453 170.148 36.3827 169.681 36.308C169.551 36.2707 169.411 36.224 169.261 36.168C169.112 36.1307 168.907 36.0747 168.645 36C168.216 35.8693 167.712 35.8413 167.133 35.916C166.555 35.9907 165.948 36.084 165.313 36.196C164.697 36.3267 164.091 36.392 163.493 36.392C162.523 36.392 161.552 36.224 160.581 35.888C159.611 35.5333 158.733 34.992 157.949 34.264C157.165 33.536 156.568 32.612 156.157 31.492C155.747 30.372 155.625 29.028 155.793 27.46C155.905 26.3773 156.213 25.388 156.717 24.492C157.221 23.5773 157.837 22.7933 158.565 22.14C159.312 21.468 160.096 20.9547 160.917 20.6C161.757 20.2267 162.569 20.0493 163.353 20.068C163.951 20.0867 164.408 20.1053 164.725 20.124C165.061 20.1427 165.491 20.1893 166.013 20.264C166.331 20.3013 166.732 20.2547 167.217 20.124C167.703 19.9933 168.188 19.8533 168.673 19.704C169.177 19.536 169.607 19.452 169.961 19.452C170.503 19.4333 170.885 19.452 171.109 19.508C171.333 19.5453 171.52 19.5827 171.669 19.62C171.557 19.956 171.464 20.46 171.389 21.132C171.315 21.804 171.259 22.5693 171.221 23.428C171.203 24.268 171.184 25.1453 171.165 26.06C171.147 26.9747 171.137 27.852 171.137 28.692C171.156 29.532 171.175 30.2787 171.193 30.932ZM160.665 28.356C160.703 29.2893 160.871 30.0173 161.169 30.54C161.487 31.044 161.86 31.3987 162.289 31.604C162.737 31.8093 163.167 31.912 163.577 31.912C164.399 31.9307 165.005 31.6133 165.397 30.96C165.789 30.3067 165.976 29.4013 165.957 28.244C165.957 27.9267 165.92 27.5533 165.845 27.124C165.789 26.6947 165.677 26.2747 165.509 25.864C165.36 25.4533 165.145 25.108 164.865 24.828C164.604 24.548 164.259 24.408 163.829 24.408C162.971 24.408 162.215 24.7253 161.561 25.36C160.927 25.9947 160.628 26.9933 160.665 28.356ZM189.454 19.76C189.491 20.6187 189.5 21.4493 189.482 22.252C189.482 23.036 189.482 23.624 189.482 24.016C189.482 24.2213 189.482 24.7067 189.482 25.472C189.5 26.2373 189.51 27.1613 189.51 28.244C189.528 29.3267 189.528 30.4467 189.51 31.604C189.491 32.7613 189.444 33.8347 189.37 34.824C189.295 35.9067 189.062 36.8587 188.67 37.68C188.296 38.5013 187.746 39.108 187.018 39.5C186.29 39.892 185.356 40.004 184.218 39.836C183.359 39.7053 182.706 39.444 182.258 39.052C181.828 38.66 181.548 38.2027 181.418 37.68C181.306 37.176 181.306 36.6533 181.418 36.112C181.548 35.5893 181.735 35.1227 181.978 34.712C182.146 34.9173 182.37 35.1413 182.65 35.384C182.948 35.608 183.266 35.7853 183.602 35.916C183.956 36.028 184.292 36.0467 184.61 35.972C184.815 35.916 184.974 35.8133 185.086 35.664C185.198 35.496 185.235 35.3 185.198 35.076C185.16 34.852 184.89 34.6 184.386 34.32C183.9 34.0213 183.266 33.8907 182.482 33.928C182.183 33.9467 181.95 33.9653 181.782 33.984C181.614 34.0027 181.418 34.012 181.194 34.012C179.906 34.012 178.72 33.7507 177.638 33.228C176.555 32.7053 175.696 31.9027 175.062 30.82C174.427 29.7373 174.147 28.356 174.222 26.676C174.278 25.5933 174.539 24.6227 175.006 23.764C175.472 22.8867 176.07 22.1493 176.798 21.552C177.544 20.936 178.328 20.4787 179.15 20.18C179.99 19.8627 180.802 19.732 181.586 19.788C181.679 19.788 181.866 19.816 182.146 19.872C182.426 19.928 182.706 19.984 182.986 20.04C183.266 20.0773 183.452 20.1053 183.546 20.124C184.199 20.236 184.927 20.2547 185.73 20.18C186.551 20.0867 187.251 19.984 187.83 19.872C188.203 19.816 188.567 19.788 188.922 19.788C189.276 19.7693 189.454 19.76 189.454 19.76ZM181.138 24.66C180.391 24.7347 179.831 25.0147 179.458 25.5C179.103 25.9853 179.01 26.592 179.178 27.32C179.252 27.656 179.43 27.992 179.71 28.328C180.008 28.6453 180.363 28.8973 180.774 29.084C181.184 29.2707 181.595 29.3453 182.006 29.308C182.416 29.2707 182.78 29.2053 183.098 29.112C183.415 29 183.667 28.776 183.854 28.44C184.04 28.104 184.134 27.572 184.134 26.844C184.134 26.116 183.984 25.5933 183.686 25.276C183.406 24.94 183.032 24.744 182.566 24.688C182.118 24.6133 181.642 24.604 181.138 24.66ZM205.888 28.972C206.355 29.2893 206.654 29.7467 206.784 30.344C206.934 30.9227 206.915 31.5573 206.728 32.248C206.56 32.9387 206.215 33.6013 205.692 34.236C205.17 34.852 204.46 35.3653 203.564 35.776C202.687 36.1867 201.623 36.4013 200.372 36.42C199.327 36.4387 198.3 36.308 197.292 36.028C196.303 35.748 195.398 35.3187 194.576 34.74C193.774 34.1613 193.12 33.4147 192.616 32.5C192.112 31.5853 191.832 30.4933 191.776 29.224C191.758 28.9627 191.758 28.692 191.776 28.412C191.795 28.132 191.814 27.8427 191.832 27.544C191.832 27.4693 191.832 27.3947 191.832 27.32C191.851 27.2453 191.87 27.1707 191.888 27.096C192.075 25.976 192.458 24.9493 193.036 24.016C193.634 23.0827 194.362 22.2893 195.22 21.636C196.079 20.9827 196.994 20.5067 197.964 20.208C198.954 19.8907 199.924 19.7787 200.876 19.872C202.351 20.0213 203.49 20.4133 204.292 21.048C205.114 21.6827 205.646 22.4667 205.888 23.4C206.15 24.3147 206.159 25.304 205.916 26.368C205.786 26.8907 205.487 27.4133 205.02 27.936C204.572 28.44 204.012 28.8973 203.34 29.308C202.668 29.7 201.95 30.008 201.184 30.232C200.438 30.4373 199.71 30.5213 199 30.484C198.646 30.4653 198.459 30.5773 198.44 30.82C198.422 31.044 198.524 31.296 198.748 31.576C198.972 31.8373 199.271 32.0147 199.644 32.108C200.522 32.2947 201.343 32.304 202.108 32.136C202.892 31.9493 203.49 31.6973 203.9 31.38C204.236 31.1187 204.591 30.7733 204.964 30.344C205.338 29.896 205.646 29.4387 205.888 28.972ZM199.756 26.144C200.186 26.1067 200.559 25.976 200.876 25.752C201.212 25.5093 201.38 25.2573 201.38 24.996C201.399 24.6227 201.306 24.324 201.1 24.1C200.914 23.8573 200.587 23.7453 200.12 23.764C199.598 23.7827 199.094 23.8573 198.608 23.988C198.123 24.1187 197.834 24.3893 197.74 24.8C197.684 25.08 197.768 25.3227 197.992 25.528C198.216 25.7333 198.496 25.892 198.832 26.004C199.168 26.0973 199.476 26.144 199.756 26.144ZM218.128 19.788C218.501 19.6947 218.846 19.788 219.164 20.068C219.481 20.348 219.761 20.7307 220.004 21.216C220.265 21.6827 220.48 22.168 220.648 22.672C220.816 23.1573 220.946 23.568 221.04 23.904C221.133 24.24 221.18 24.408 221.18 24.408C221.18 24.408 220.956 24.4547 220.508 24.548C220.078 24.6227 219.537 24.7813 218.884 25.024C218.249 25.248 217.614 25.5933 216.98 26.06C216.606 26.34 216.252 26.676 215.916 27.068C215.58 27.46 215.29 27.964 215.048 28.58C214.805 29.1773 214.628 29.9707 214.516 30.96C214.46 31.464 214.45 31.9867 214.488 32.528C214.525 33.0693 214.544 33.5267 214.544 33.9C214.562 34.236 214.609 34.4787 214.684 34.628C214.777 34.7587 214.852 34.8707 214.908 34.964C214.665 35.188 214.217 35.44 213.564 35.72C212.929 35.9813 212.229 36.112 211.464 36.112C210.717 36.112 210.166 35.8693 209.812 35.384C209.457 34.8987 209.28 34.2267 209.28 33.368C209.28 33.1627 209.27 32.7147 209.252 32.024C209.252 31.3147 209.242 30.4653 209.224 29.476C209.224 28.4867 209.214 27.46 209.196 26.396C209.196 25.332 209.186 24.3427 209.168 23.428C209.168 22.4947 209.158 21.7387 209.14 21.16C209.14 20.5813 209.14 20.292 209.14 20.292C209.326 20.2547 209.644 20.2267 210.092 20.208C210.558 20.1893 211.062 20.208 211.604 20.264C212.145 20.32 212.649 20.4507 213.116 20.656C213.34 20.7493 213.638 20.8427 214.012 20.936C214.404 21.0107 214.777 21.048 215.132 21.048C215.505 21.048 215.776 20.992 215.944 20.88C216.298 20.6187 216.653 20.3947 217.008 20.208C217.381 20.0213 217.754 19.8813 218.128 19.788Z" fill="url(#paint0_linear_28_2)"/>
<defs>
<linearGradient id="paint0_linear_28_2" x1="8" y1="23.5" x2="223" y2="23.5" gradientUnits="userSpaceOnUse">
<stop stop-color="#FF6675"/>
<stop offset="1" stop-color="#C75B66"/>
</linearGradient>
</defs>
</svg>
